<svg xmlns="http://www.w3.org/2000/svg" version="1.1" xmlns:xlink="http://www.w3.org/1999/xlink" xmlns:svgjs="http://svgjs.dev/svgjs" width="128" height="128" viewBox="0 0 128 128"><g transform="matrix(0.8046875,0,0,0.8046875,12.333870967741937,12.333870967741937)"><svg viewBox="0 0 155 155" data-background-color="#ffffff" preserveAspectRatio="xMidYMid meet" height="128" width="128" xmlns="http://www.w3.org/2000/svg" xmlns:xlink="http://www.w3.org/1999/xlink"><g id="tight-bounds" transform="matrix(1,0,0,1,0.25,0.25)"><svg viewBox="0 0 154.5 154.5" height="154.5" width="154.5"><g><svg></svg></g><g><svg viewBox="0 0 154.5 154.5" height="154.5" width="154.5"><g transform="matrix(1,0,0,1,51.496832313559324,47.74637100000001)"><svg viewBox="0 0 51.506335372881345 59.007257999999986" height="59.007257999999986" width="51.506335372881345"><g><svg viewBox="0 0 51.506335372881345 59.007257999999986" height="59.007257999999986" width="51.506335372881345"><g><svg viewBox="0 0 51.506335372881345 59.007257999999986" height="59.007257999999986" width="51.506335372881345"><g id="textblocktransform"><svg viewBox="0 0 51.506335372881345 59.007257999999986" height="59.007257999999986" width="51.506335372881345" id="textblock"><g><svg viewBox="0 0 51.506335372881345 59.007257999999986" height="59.007257999999986" width="51.506335372881345"><g transform="matrix(1,0,0,1,0,0)"><svg width="51.506335372881345" viewBox="5.05 -35 30.900000000000002 35.4" height="59.007257999999986" data-palette-color="#ee3e38"><path d="M6.3 0.4Q5.45 0.4 5.45-0.7L5.45-0.7 5.35-30Q5.35-33.15 5.05-34.35L5.05-34.35Q5.45-34.75 5.95-34.75L5.95-34.75Q6.35-34.75 6.63-34.45 6.9-34.15 6.9-33.65L6.9-33.65 6.9-4.35Q6.9-1.2 7.2 0L7.2 0Q6.8 0.4 6.3 0.4L6.3 0.4ZM22.4-35Q29.55-35 32.75-32.52 35.95-30.05 35.95-24.95L35.95-24.95Q35.95-19.3 32.22-16.7 28.5-14.1 20.7-14.1L20.7-14.1 19.15-14.1 19.15-4.35Q19.15-3.6 19.25-2.08 19.35-0.55 19.5 0L19.5 0Q19.1 0.4 18.6 0.4L18.6 0.4Q17.75 0.4 17.65-0.7L17.65-0.7 17.65-30Q17.65-30.75 17.55-32.27 17.45-33.8 17.3-34.35L17.3-34.35Q17.6-34.55 18.75-34.77 19.9-35 22.4-35L22.4-35ZM21.25-15.35Q27.95-15.35 31.15-17.65 34.35-19.95 34.35-24.9L34.35-24.9Q34.35-29.6 31.42-31.65 28.5-33.7 21.95-33.7L21.95-33.7Q19.8-33.7 19.15-33.5L19.15-33.5 19.15-15.35 21.25-15.35Z" opacity="1" transform="matrix(1,0,0,1,0,0)" fill="#ee3e38" class="wordmark-text-0" data-fill-palette-color="primary" id="text-0"></path></svg></g></svg></g></svg></g></svg></g></svg></g></svg></g><g><path d="M51.308 33.816A25.753 25.753 0 0 1 103.192 33.816L97.87 33.816A20.432 20.432 0 0 0 56.63 33.816L51.308 33.816M51.308 120.684A25.753 25.753 0 0 0 103.192 120.684L97.87 120.684A20.432 20.432 0 0 1 56.63 120.684L51.308 120.684" fill="#ee3e38" stroke="transparent" data-fill-palette-color="tertiary"></path></g></svg></g><defs></defs></svg><rect width="154.5" height="154.5" fill="none" stroke="none" visibility="hidden"></rect></g></svg></g></svg>